<svg xmlns="http://www.w3.org/2000/svg" width="1920" height="1080"><path d="M619,1293L292,1300L1057,1317Z" fill="#5d7eac" stroke="#5d7eac" stroke-width="1.51"/><path d="M292,1300L-71,1317L1057,1317Z" fill="#6c83b0" stroke="#6c83b0" stroke-width="1.51"/><path d="M380,-263L752,-218L1282,-243Z" fill="#bedaed" stroke="#bedaed" stroke-width="1.51"/><path d="M1300,1278L1166,1319L1485,1266Z" fill="#27639f" stroke="#27639f" stroke-width="1.51"/><path d="M1485,1266L1166,1319L1744,1321Z" fill="#1d5a99" stroke="#1d5a99" stroke-width="1.51"/><path d="M380,-263L1282,-243L1960,-254Z" fill="#a5c7e4" stroke="#a5c7e4" stroke-width="1.51"/><path d="M1612,-204L1783,-206L1960,-254Z" fill="#8fa3cf" stroke="#8fa3cf" stroke-width="1.51"/><path d="M1522,-210L1612,-204L1960,-254Z" fill="#92a8d3" stroke="#92a8d3" stroke-width="1.51"/><path d="M1282,-243L1522,-210L1960,-254Z" fill="#96b0d8" stroke="#96b0d8" stroke-width="1.51"/><path d="M2054,-221L1964,-53L2116,-26Z" fill="#808fb9" stroke="#808fb9" stroke-width="1.51"/><path d="M1912,653L2106,742L2122,507Z" fill="#386ca5" stroke="#386ca5" stroke-width="1.51"/><path d="M1884,519L1912,653L2122,507Z" fill="#4075ae" stroke="#4075ae" stroke-width="1.51"/><path d="M2119,376L1907,379L2122,507Z" fill="#527aac" stroke="#527aac" stroke-width="1.51"/><path d="M1961,1240L1744,1321L2125,1304Z" fill="#094285" stroke="#094285" stroke-width="1.51"/><path d="M2036,78L1890,191L2127,228Z" fill="#6f87b6" stroke="#6f87b6" stroke-width="1.51"/><path d="M1907,379L2119,376L2127,228Z" fill="#5e80ae" stroke="#5e80ae" stroke-width="1.51"/><path d="M1890,191L1907,379L2127,228Z" fill="#6686b7" stroke="#6686b7" stroke-width="1.51"/><path d="M2116,-26L2036,78L2127,228Z" fill="#7385b2" stroke="#7385b2" stroke-width="1.51"/><path d="M2119,376L2122,507L2127,228Z" fill="#5778a7" stroke="#5778a7" stroke-width="1.51"/><path d="M2046,1022L1927,1190L2130,1143Z" fill="#0c4a90" stroke="#0c4a90" stroke-width="1.51"/><path d="M1927,1190L1961,1240L2130,1143Z" fill="#09468c" stroke="#09468c" stroke-width="1.51"/><path d="M1961,1240L2125,1304L2130,1143Z" fill="#093f82" stroke="#093f82" stroke-width="1.51"/><path d="M2076,882L2046,1022L2130,1143Z" fill="#134f92" stroke="#134f92" stroke-width="1.51"/><path d="M2106,742L2076,882L2130,1143Z" fill="#195595" stroke="#195595" stroke-width="1.51"/><path d="M2122,507L2106,742L2130,1143Z" fill="#255d99" stroke="#255d99" stroke-width="1.51"/><path d="M2127,228L2122,507L2130,1143Z" fill="#37689e" stroke="#37689e" stroke-width="1.51"/><path d="M1907,379L1884,519L2122,507Z" fill="#4d7bb1" stroke="#4d7bb1" stroke-width="1.51"/><path d="M1947,861L2076,882L2106,742Z" fill="#24609e" stroke="#24609e" stroke-width="1.51"/><path d="M1972,971L2046,1022L2076,882Z" fill="#16569a" stroke="#16569a" stroke-width="1.51"/><path d="M1964,-53L2036,78L2116,-26Z" fill="#7a8cb8" stroke="#7a8cb8" stroke-width="1.51"/><path d="M1912,653L1947,861L2106,742Z" fill="#2a69a6" stroke="#2a69a6" stroke-width="1.51"/><path d="M1960,-254L1964,-53L2054,-221Z" fill="#8695c0" stroke="#8695c0" stroke-width="1.51"/><path d="M1947,861L1972,971L2076,882Z" fill="#1c5c9f" stroke="#1c5c9f" stroke-width="1.51"/><path d="M1972,971L1927,1190L2046,1022Z" fill="#105198" stroke="#105198" stroke-width="1.51"/><path d="M1964,-53L1883,61L2036,78Z" fill="#7b90be" stroke="#7b90be" stroke-width="1.51"/><path d="M1883,61L1890,191L2036,78Z" fill="#768ebf" stroke="#768ebf" stroke-width="1.51"/><path d="M1890,191L1837,340L1907,379Z" fill="#658bbe" stroke="#658bbe" stroke-width="1.51"/><path d="M1790,966L1760,1142L1927,1190Z" fill="#0f57a1" stroke="#0f57a1" stroke-width="1.51"/><path d="M1912,653L1812,728L1947,861Z" fill="#2c6fae" stroke="#2c6fae" stroke-width="1.51"/><path d="M1812,728L1802,830L1947,861Z" fill="#276caf" stroke="#276caf" stroke-width="1.51"/><path d="M1960,-254L1783,-206L1964,-53Z" fill="#899ac8" stroke="#899ac8" stroke-width="1.51"/><path d="M1783,-206L1793,-30L1964,-53Z" fill="#869bca" stroke="#869bca" stroke-width="1.51"/><path d="M1947,861L1790,966L1972,971Z" fill="#1960a6" stroke="#1960a6" stroke-width="1.51"/><path d="M1790,966L1927,1190L1972,971Z" fill="#1158a0" stroke="#1158a0" stroke-width="1.51"/><path d="M1927,1190L1744,1321L1961,1240Z" fill="#09488f" stroke="#09488f" stroke-width="1.51"/><path d="M1793,-30L1883,61L1964,-53Z" fill="#8096c6" stroke="#8096c6" stroke-width="1.51"/><path d="M1802,830L1790,966L1947,861Z" fill="#2067ac" stroke="#2067ac" stroke-width="1.51"/><path d="M1760,1142L1744,1321L1927,1190Z" fill="#0c4e97" stroke="#0c4e97" stroke-width="1.51"/><path d="M892,1288L619,1293L1057,1317Z" fill="#4b76a9" stroke="#4b76a9" stroke-width="1.51"/><path d="M1730,502L1680,560L1812,728Z" fill="#4181bc" stroke="#4181bc" stroke-width="1.51"/><path d="M1837,340L1730,502L1884,519Z" fill="#5386bd" stroke="#5386bd" stroke-width="1.51"/><path d="M1730,502L1812,728L1884,519Z" fill="#417eb9" stroke="#417eb9" stroke-width="1.51"/><path d="M1775,208L1837,340L1890,191Z" fill="#6c90c2" stroke="#6c90c2" stroke-width="1.51"/><path d="M1883,61L1797,53L1890,191Z" fill="#7993c6" stroke="#7993c6" stroke-width="1.51"/><path d="M1837,340L1884,519L1907,379Z" fill="#5785bb" stroke="#5785bb" stroke-width="1.51"/><path d="M1884,519L1812,728L1912,653Z" fill="#3a77b4" stroke="#3a77b4" stroke-width="1.51"/><path d="M1793,-30L1797,53L1883,61Z" fill="#7f98c9" stroke="#7f98c9" stroke-width="1.51"/><path d="M1797,53L1775,208L1890,191Z" fill="#7794c6" stroke="#7794c6" stroke-width="1.51"/><path d="M1775,208L1665,388L1837,340Z" fill="#6792c3" stroke="#6792c3" stroke-width="1.51"/><path d="M1665,388L1730,502L1837,340Z" fill="#5b8dc2" stroke="#5b8dc2" stroke-width="1.51"/><path d="M1629,1235L1744,1321L1760,1142Z" fill="#115399" stroke="#115399" stroke-width="1.51"/><path d="M1640,938L1760,1142L1790,966Z" fill="#1863aa" stroke="#1863aa" stroke-width="1.51"/><path d="M1632,871L1640,938L1790,966Z" fill="#216cb0" stroke="#216cb0" stroke-width="1.51"/><path d="M1783,-206L1653,-33L1793,-30Z" fill="#88a1ce" stroke="#88a1ce" stroke-width="1.51"/><path d="M1620,78L1775,208L1797,53Z" fill="#7c9bcb" stroke="#7c9bcb" stroke-width="1.51"/><path d="M1632,871L1790,966L1802,830Z" fill="#226cb0" stroke="#226cb0" stroke-width="1.51"/><path d="M1594,725L1632,871L1802,830Z" fill="#2b76b6" stroke="#2b76b6" stroke-width="1.51"/><path d="M1594,725L1802,830L1812,728Z" fill="#2e77b5" stroke="#2e77b5" stroke-width="1.51"/><path d="M1680,560L1594,725L1812,728Z" fill="#3a7ebb" stroke="#3a7ebb" stroke-width="1.51"/><path d="M1640,938L1619,1137L1760,1142Z" fill="#1861a9" stroke="#1861a9" stroke-width="1.51"/><path d="M1613,214L1665,388L1775,208Z" fill="#6e97c8" stroke="#6e97c8" stroke-width="1.51"/><path d="M1612,-204L1653,-33L1783,-206Z" fill="#8da7d3" stroke="#8da7d3" stroke-width="1.51"/><path d="M1793,-30L1653,-33L1797,53Z" fill="#839ecc" stroke="#839ecc" stroke-width="1.51"/><path d="M1653,-33L1620,78L1797,53Z" fill="#82a0ce" stroke="#82a0ce" stroke-width="1.51"/><path d="M1620,78L1613,214L1775,208Z" fill="#799ccc" stroke="#799ccc" stroke-width="1.51"/><path d="M1629,1235L1485,1266L1744,1321Z" fill="#145498" stroke="#145498" stroke-width="1.51"/><path d="M1619,1137L1629,1235L1760,1142Z" fill="#125aa2" stroke="#125aa2" stroke-width="1.51"/><path d="M1665,388L1680,560L1730,502Z" fill="#518bc1" stroke="#518bc1" stroke-width="1.51"/><path d="M752,-218L847,-192L1282,-243Z" fill="#b0d1e9" stroke="#b0d1e9" stroke-width="1.51"/><path d="M1463,982L1619,1137L1640,938Z" fill="#1e6bb0" stroke="#1e6bb0" stroke-width="1.51"/><path d="M1613,214L1496,221L1665,388Z" fill="#6f9dcc" stroke="#6f9dcc" stroke-width="1.51"/><path d="M1496,221L1488,430L1665,388Z" fill="#689ccb" stroke="#689ccb" stroke-width="1.51"/><path d="M1455,576L1594,725L1680,560Z" fill="#4289c2" stroke="#4289c2" stroke-width="1.51"/><path d="M1665,388L1488,430L1680,560Z" fill="#5791c6" stroke="#5791c6" stroke-width="1.51"/><path d="M1488,430L1455,576L1680,560Z" fill="#4f91c7" stroke="#4f91c7" stroke-width="1.51"/><path d="M1594,725L1522,855L1632,871Z" fill="#2d7bba" stroke="#2d7bba" stroke-width="1.51"/><path d="M1612,-204L1522,-210L1653,-33Z" fill="#90acd6" stroke="#90acd6" stroke-width="1.51"/><path d="M1522,-210L1444,-116L1653,-33Z" fill="#90aed8" stroke="#90aed8" stroke-width="1.51"/><path d="M1463,982L1504,1150L1619,1137Z" fill="#1d68ad" stroke="#1d68ad" stroke-width="1.51"/><path d="M1495,66L1620,78L1653,-33Z" fill="#85a6d3" stroke="#85a6d3" stroke-width="1.51"/><path d="M1444,-116L1495,66L1653,-33Z" fill="#8aabd6" stroke="#8aabd6" stroke-width="1.51"/><path d="M1495,66L1496,221L1613,214Z" fill="#7ca4d1" stroke="#7ca4d1" stroke-width="1.51"/><path d="M1495,66L1613,214L1620,78Z" fill="#80a4d2" stroke="#80a4d2" stroke-width="1.51"/><path d="M1619,1137L1504,1150L1629,1235Z" fill="#165ea5" stroke="#165ea5" stroke-width="1.51"/><path d="M1632,871L1522,855L1640,938Z" fill="#2674b6" stroke="#2674b6" stroke-width="1.51"/><path d="M1522,855L1463,982L1640,938Z" fill="#2674b7" stroke="#2674b7" stroke-width="1.51"/><path d="M1504,1150L1485,1266L1629,1235Z" fill="#195da2" stroke="#195da2" stroke-width="1.51"/><path d="M1455,576L1441,744L1594,725Z" fill="#3f89c2" stroke="#3f89c2" stroke-width="1.51"/><path d="M1441,744L1522,855L1594,725Z" fill="#3381be" stroke="#3381be" stroke-width="1.51"/><path d="M1444,-116L1389,-95L1495,66Z" fill="#8fb2d9" stroke="#8fb2d9" stroke-width="1.51"/><path d="M1319,335L1488,430L1496,221Z" fill="#6fa4cf" stroke="#6fa4cf" stroke-width="1.51"/><path d="M1495,66L1292,125L1496,221Z" fill="#83abd6" stroke="#83abd6" stroke-width="1.51"/><path d="M1463,982L1356,1041L1504,1150Z" fill="#256fb2" stroke="#256fb2" stroke-width="1.51"/><path d="M1300,838L1463,982L1522,855Z" fill="#2f7dbb" stroke="#2f7dbb" stroke-width="1.51"/><path d="M1441,744L1300,838L1522,855Z" fill="#3683bf" stroke="#3683bf" stroke-width="1.51"/><path d="M1282,-243L1444,-116L1522,-210Z" fill="#99b9dc" stroke="#99b9dc" stroke-width="1.51"/><path d="M1351,684L1441,744L1455,576Z" fill="#448ec5" stroke="#448ec5" stroke-width="1.51"/><path d="M1285,1163L1485,1266L1504,1150Z" fill="#2165a8" stroke="#2165a8" stroke-width="1.51"/><path d="M1356,1041L1285,1163L1504,1150Z" fill="#266db0" stroke="#266db0" stroke-width="1.51"/><path d="M1285,1163L1300,1278L1485,1266Z" fill="#2565a5" stroke="#2565a5" stroke-width="1.51"/><path d="M1321,563L1455,576L1488,430Z" fill="#5498ca" stroke="#5498ca" stroke-width="1.51"/><path d="M1389,-95L1292,125L1495,66Z" fill="#8bb1d9" stroke="#8bb1d9" stroke-width="1.51"/><path d="M1280,217L1319,335L1496,221Z" fill="#79aad3" stroke="#79aad3" stroke-width="1.51"/><path d="M1292,125L1280,217L1496,221Z" fill="#81aed6" stroke="#81aed6" stroke-width="1.51"/><path d="M1319,335L1321,563L1488,430Z" fill="#61a0cd" stroke="#61a0cd" stroke-width="1.51"/><path d="M1282,-243L1389,-95L1444,-116Z" fill="#98badd" stroke="#98badd" stroke-width="1.51"/><path d="M1321,563L1351,684L1455,576Z" fill="#4c95c8" stroke="#4c95c8" stroke-width="1.51"/><path d="M1300,838L1356,1041L1463,982Z" fill="#2d7bbb" stroke="#2d7bbb" stroke-width="1.51"/><path d="M847,-192L1136,-172L1282,-243Z" fill="#a9cbe6" stroke="#a9cbe6" stroke-width="1.51"/><path d="M1234,-70L1292,125L1389,-95Z" fill="#91b8dc" stroke="#91b8dc" stroke-width="1.51"/><path d="M1351,684L1300,838L1441,744Z" fill="#3d8bc3" stroke="#3d8bc3" stroke-width="1.51"/><path d="M847,-192L994,-154L1136,-172Z" fill="#abcee8" stroke="#abcee8" stroke-width="1.51"/><path d="M1319,335L1193,434L1321,563Z" fill="#65a5d0" stroke="#65a5d0" stroke-width="1.51"/><path d="M1300,838L1209,870L1356,1041Z" fill="#3483be" stroke="#3483be" stroke-width="1.51"/><path d="M1282,-243L1234,-70L1389,-95Z" fill="#99bddf" stroke="#99bddf" stroke-width="1.51"/><path d="M380,-263L594,-213L752,-218Z" fill="#cee3f1" stroke="#cee3f1" stroke-width="1.51"/><path d="M1234,-70L1175,73L1292,125Z" fill="#91badd" stroke="#91badd" stroke-width="1.51"/><path d="M1321,563L1233,642L1351,684Z" fill="#4d97ca" stroke="#4d97ca" stroke-width="1.51"/><path d="M1233,642L1300,838L1351,684Z" fill="#4491c6" stroke="#4491c6" stroke-width="1.51"/><path d="M1137,943L1235,1104L1356,1041Z" fill="#337cb9" stroke="#337cb9" stroke-width="1.51"/><path d="M1209,870L1137,943L1356,1041Z" fill="#3682be" stroke="#3682be" stroke-width="1.51"/><path d="M1235,1104L1285,1163L1356,1041Z" fill="#2c74b3" stroke="#2c74b3" stroke-width="1.51"/><path d="M1136,-172L1234,-70L1282,-243Z" fill="#9fc2e1" stroke="#9fc2e1" stroke-width="1.51"/><path d="M1233,642L1209,870L1300,838Z" fill="#418fc5" stroke="#418fc5" stroke-width="1.51"/><path d="M1280,217L1187,249L1319,335Z" fill="#7cb0d6" stroke="#7cb0d6" stroke-width="1.51"/><path d="M1137,507L1233,642L1321,563Z" fill="#579fce" stroke="#579fce" stroke-width="1.51"/><path d="M1193,434L1137,507L1321,563Z" fill="#60a4d0" stroke="#60a4d0" stroke-width="1.51"/><path d="M1187,249L1193,434L1319,335Z" fill="#75aed4" stroke="#75aed4" stroke-width="1.51"/><path d="M1086,787L1209,870L1233,642Z" fill="#4794c7" stroke="#4794c7" stroke-width="1.51"/><path d="M1285,1163L1166,1319L1300,1278Z" fill="#2c69a6" stroke="#2c69a6" stroke-width="1.51"/><path d="M1235,1104L1166,1319L1285,1163Z" fill="#2e6fad" stroke="#2e6fad" stroke-width="1.51"/><path d="M1187,249L1280,217L1292,125Z" fill="#84b3d8" stroke="#84b3d8" stroke-width="1.51"/><path d="M1175,73L1187,249L1292,125Z" fill="#8ab7db" stroke="#8ab7db" stroke-width="1.51"/><path d="M1046,1159L1166,1319L1235,1104Z" fill="#3572af" stroke="#3572af" stroke-width="1.51"/><path d="M1187,249L1054,386L1193,434Z" fill="#78b2d6" stroke="#78b2d6" stroke-width="1.51"/><path d="M1023,700L1086,787L1233,642Z" fill="#519bcb" stroke="#519bcb" stroke-width="1.51"/><path d="M1065,595L1023,700L1233,642Z" fill="#58a0ce" stroke="#58a0ce" stroke-width="1.51"/><path d="M1137,507L1065,595L1233,642Z" fill="#5ba2cf" stroke="#5ba2cf" stroke-width="1.51"/><path d="M1043,-80L1175,73L1234,-70Z" fill="#9ac1e1" stroke="#9ac1e1" stroke-width="1.51"/><path d="M1137,943L1046,1159L1235,1104Z" fill="#3a7db9" stroke="#3a7db9" stroke-width="1.51"/><path d="M1043,-80L1079,70L1175,73Z" fill="#9ac1e1" stroke="#9ac1e1" stroke-width="1.51"/><path d="M1136,-172L1043,-80L1234,-70Z" fill="#a0c4e3" stroke="#a0c4e3" stroke-width="1.51"/><path d="M1089,936L1046,1159L1137,943Z" fill="#4084be" stroke="#4084be" stroke-width="1.51"/><path d="M1046,1159L1057,1317L1166,1319Z" fill="#386fa8" stroke="#386fa8" stroke-width="1.51"/><path d="M1175,73L1079,70L1187,249Z" fill="#90bbde" stroke="#90bbde" stroke-width="1.51"/><path d="M1086,787L1137,943L1209,870Z" fill="#438ec4" stroke="#438ec4" stroke-width="1.51"/><path d="M1086,787L1089,936L1137,943Z" fill="#458dc4" stroke="#458dc4" stroke-width="1.51"/><path d="M1079,70L986,279L1187,249Z" fill="#8cbbdd" stroke="#8cbbdd" stroke-width="1.51"/><path d="M986,279L1054,386L1187,249Z" fill="#82b7da" stroke="#82b7da" stroke-width="1.51"/><path d="M1054,386L1137,507L1193,434Z" fill="#6eacd4" stroke="#6eacd4" stroke-width="1.51"/><path d="M909,1045L1046,1159L1089,936Z" fill="#4485be" stroke="#4485be" stroke-width="1.51"/><path d="M994,-154L1043,-80L1136,-172Z" fill="#a6c9e5" stroke="#a6c9e5" stroke-width="1.51"/><path d="M924,493L1065,595L1137,507Z" fill="#67aad4" stroke="#67aad4" stroke-width="1.51"/><path d="M1054,386L924,493L1137,507Z" fill="#70afd6" stroke="#70afd6" stroke-width="1.51"/><path d="M861,133L986,279L1079,70Z" fill="#97c2e1" stroke="#97c2e1" stroke-width="1.51"/><path d="M926,741L858,867L1086,787Z" fill="#559ccc" stroke="#559ccc" stroke-width="1.51"/><path d="M1086,787L858,867L1089,936Z" fill="#4d94c8" stroke="#4d94c8" stroke-width="1.51"/><path d="M858,867L909,1045L1089,936Z" fill="#4d8fc6" stroke="#4d8fc6" stroke-width="1.51"/><path d="M1046,1159L892,1288L1057,1317Z" fill="#3f73ac" stroke="#3f73ac" stroke-width="1.51"/><path d="M1043,-80L831,-27L1079,70Z" fill="#a2c9e5" stroke="#a2c9e5" stroke-width="1.51"/><path d="M1023,700L926,741L1086,787Z" fill="#559dcd" stroke="#559dcd" stroke-width="1.51"/><path d="M831,-27L861,133L1079,70Z" fill="#a2c8e5" stroke="#a2c8e5" stroke-width="1.51"/><path d="M861,133L889,251L986,279Z" fill="#95c2e1" stroke="#95c2e1" stroke-width="1.51"/><path d="M924,493L1023,700L1065,595Z" fill="#64a8d3" stroke="#64a8d3" stroke-width="1.51"/><path d="M892,436L924,493L1054,386Z" fill="#79b5d9" stroke="#79b5d9" stroke-width="1.51"/><path d="M924,493L926,741L1023,700Z" fill="#61a7d2" stroke="#61a7d2" stroke-width="1.51"/><path d="M986,279L892,436L1054,386Z" fill="#80b8da" stroke="#80b8da" stroke-width="1.51"/><path d="M909,1045L848,1149L1046,1159Z" fill="#4982bc" stroke="#4982bc" stroke-width="1.51"/><path d="M848,1149L892,1288L1046,1159Z" fill="#477cb4" stroke="#477cb4" stroke-width="1.51"/><path d="M994,-154L831,-27L1043,-80Z" fill="#a8cde7" stroke="#a8cde7" stroke-width="1.51"/><path d="M924,493L766,673L926,741Z" fill="#6babd4" stroke="#6babd4" stroke-width="1.51"/><path d="M889,251L892,436L986,279Z" fill="#8abedd" stroke="#8abedd" stroke-width="1.51"/><path d="M847,-192L831,-27L994,-154Z" fill="#b0d1e9" stroke="#b0d1e9" stroke-width="1.51"/><path d="M681,1241L619,1293L892,1288Z" fill="#587dae" stroke="#587dae" stroke-width="1.51"/><path d="M889,251L726,437L892,436Z" fill="#8bbedd" stroke="#8bbedd" stroke-width="1.51"/><path d="M858,867L768,956L909,1045Z" fill="#5894c8" stroke="#5894c8" stroke-width="1.51"/><path d="M692,528L766,673L924,493Z" fill="#78b4d8" stroke="#78b4d8" stroke-width="1.51"/><path d="M892,436L726,437L924,493Z" fill="#80b8da" stroke="#80b8da" stroke-width="1.51"/><path d="M726,437L692,528L924,493Z" fill="#82badb" stroke="#82badb" stroke-width="1.51"/><path d="M766,673L858,867L926,741Z" fill="#62a4d0" stroke="#62a4d0" stroke-width="1.51"/><path d="M706,222L726,437L889,251Z" fill="#98c6e0" stroke="#98c6e0" stroke-width="1.51"/><path d="M756,1139L848,1149L909,1045Z" fill="#5387be" stroke="#5387be" stroke-width="1.51"/><path d="M768,956L756,1139L909,1045Z" fill="#588ec3" stroke="#588ec3" stroke-width="1.51"/><path d="M716,-83L831,-27L847,-192Z" fill="#b6d5ea" stroke="#b6d5ea" stroke-width="1.51"/><path d="M766,673L683,823L858,867Z" fill="#68a5d0" stroke="#68a5d0" stroke-width="1.51"/><path d="M861,133L706,222L889,251Z" fill="#9fc8e3" stroke="#9fc8e3" stroke-width="1.51"/><path d="M848,1149L756,1139L892,1288Z" fill="#5181b7" stroke="#5181b7" stroke-width="1.51"/><path d="M756,1139L681,1241L892,1288Z" fill="#5580b4" stroke="#5580b4" stroke-width="1.51"/><path d="M831,-27L698,37L861,133Z" fill="#accfe7" stroke="#accfe7" stroke-width="1.51"/><path d="M752,-218L716,-83L847,-192Z" fill="#bbd8eb" stroke="#bbd8eb" stroke-width="1.51"/><path d="M698,37L706,222L861,133Z" fill="#abcee6" stroke="#abcee6" stroke-width="1.51"/><path d="M683,823L768,956L858,867Z" fill="#639dcc" stroke="#639dcc" stroke-width="1.51"/><path d="M716,-83L698,37L831,-27Z" fill="#b5d4e9" stroke="#b5d4e9" stroke-width="1.51"/><path d="M698,37L616,145L706,222Z" fill="#b1d1e8" stroke="#b1d1e8" stroke-width="1.51"/><path d="M706,222L588,356L726,437Z" fill="#9dc9e1" stroke="#9dc9e1" stroke-width="1.51"/><path d="M555,970L596,1176L756,1139Z" fill="#6691c3" stroke="#6691c3" stroke-width="1.51"/><path d="M692,528L536,721L766,673Z" fill="#7db5d8" stroke="#7db5d8" stroke-width="1.51"/><path d="M536,721L683,823L766,673Z" fill="#75aed4" stroke="#75aed4" stroke-width="1.51"/><path d="M555,970L756,1139L768,956Z" fill="#6495c7" stroke="#6495c7" stroke-width="1.51"/><path d="M683,823L555,970L768,956Z" fill="#6b9fcd" stroke="#6b9fcd" stroke-width="1.51"/><path d="M594,-213L716,-83L752,-218Z" fill="#c2dced" stroke="#c2dced" stroke-width="1.51"/><path d="M596,1176L681,1241L756,1139Z" fill="#6088bb" stroke="#6088bb" stroke-width="1.51"/><path d="M533,547L536,721L692,528Z" fill="#86badb" stroke="#86badb" stroke-width="1.51"/><path d="M573,233L588,356L706,222Z" fill="#a7cee4" stroke="#a7cee4" stroke-width="1.51"/><path d="M545,-115L698,37L716,-83Z" fill="#bdd9eb" stroke="#bdd9eb" stroke-width="1.51"/><path d="M594,-213L545,-115L716,-83Z" fill="#c5ddee" stroke="#c5ddee" stroke-width="1.51"/><path d="M588,356L692,528L726,437Z" fill="#91c2de" stroke="#91c2de" stroke-width="1.51"/><path d="M536,721L549,802L683,823Z" fill="#78acd4" stroke="#78acd4" stroke-width="1.51"/><path d="M462,1236L292,1300L619,1293Z" fill="#6c85b4" stroke="#6c85b4" stroke-width="1.51"/><path d="M588,356L533,547L692,528Z" fill="#92c1df" stroke="#92c1df" stroke-width="1.51"/><path d="M616,145L573,233L706,222Z" fill="#add1e6" stroke="#add1e6" stroke-width="1.51"/><path d="M549,802L555,970L683,823Z" fill="#73a5d0" stroke="#73a5d0" stroke-width="1.51"/><path d="M487,90L616,145L698,37Z" fill="#b8d5ea" stroke="#b8d5ea" stroke-width="1.51"/><path d="M545,-115L487,90L698,37Z" fill="#bfdaec" stroke="#bfdaec" stroke-width="1.51"/><path d="M-161,-258L174,-199L380,-263Z" fill="#e5eff9" stroke="#e5eff9" stroke-width="1.51"/><path d="M596,1176L619,1293L681,1241Z" fill="#6185b5" stroke="#6185b5" stroke-width="1.51"/><path d="M431,-22L487,90L545,-115Z" fill="#c6ddef" stroke="#c6ddef" stroke-width="1.51"/><path d="M430,407L533,547L588,356Z" fill="#9cc7e2" stroke="#9cc7e2" stroke-width="1.51"/><path d="M555,970L435,1159L596,1176Z" fill="#6e93c5" stroke="#6e93c5" stroke-width="1.51"/><path d="M596,1176L462,1236L619,1293Z" fill="#6787b8" stroke="#6787b8" stroke-width="1.51"/><path d="M487,90L573,233L616,145Z" fill="#b7d4e9" stroke="#b7d4e9" stroke-width="1.51"/><path d="M101,1273L-71,1317L292,1300Z" fill="#7c8cb7" stroke="#7c8cb7" stroke-width="1.51"/><path d="M549,802L465,815L555,970Z" fill="#79a7d2" stroke="#79a7d2" stroke-width="1.51"/><path d="M386,1038L435,1159L555,970Z" fill="#7599c9" stroke="#7599c9" stroke-width="1.51"/><path d="M573,233L439,282L588,356Z" fill="#abd0e5" stroke="#abd0e5" stroke-width="1.51"/><path d="M435,1159L462,1236L596,1176Z" fill="#6d8cbe" stroke="#6d8cbe" stroke-width="1.51"/><path d="M380,-263L545,-115L594,-213Z" fill="#d0e3f2" stroke="#d0e3f2" stroke-width="1.51"/><path d="M533,547L394,640L536,721Z" fill="#8abadc" stroke="#8abadc" stroke-width="1.51"/><path d="M439,282L430,407L588,356Z" fill="#a9cee4" stroke="#a9cee4" stroke-width="1.51"/><path d="M-161,-258L-57,-213L174,-199Z" fill="#eaf2fb" stroke="#eaf2fb" stroke-width="1.51"/><path d="M487,90L439,282L573,233Z" fill="#b6d4e9" stroke="#b6d4e9" stroke-width="1.51"/><path d="M396,592L394,640L533,547Z" fill="#91bedf" stroke="#91bedf" stroke-width="1.51"/><path d="M380,-263L332,-200L545,-115Z" fill="#d5e6f4" stroke="#d5e6f4" stroke-width="1.51"/><path d="M536,721L465,815L549,802Z" fill="#7dafd6" stroke="#7dafd6" stroke-width="1.51"/><path d="M465,815L386,1038L555,970Z" fill="#78a2d0" stroke="#78a2d0" stroke-width="1.51"/><path d="M332,-200L431,-22L545,-115Z" fill="#cfe2f1" stroke="#cfe2f1" stroke-width="1.51"/><path d="M430,407L396,592L533,547Z" fill="#98c3e1" stroke="#98c3e1" stroke-width="1.51"/><path d="M394,640L465,815L536,721Z" fill="#85b4d9" stroke="#85b4d9" stroke-width="1.51"/><path d="M335,537L396,592L430,407Z" fill="#9cc5e3" stroke="#9cc5e3" stroke-width="1.51"/><path d="M296,829L386,1038L465,815Z" fill="#81a9d4" stroke="#81a9d4" stroke-width="1.51"/><path d="M431,-22L240,133L487,90Z" fill="#c8ddf0" stroke="#c8ddf0" stroke-width="1.51"/><path d="M240,133L324,226L487,90Z" fill="#c5daee" stroke="#c5daee" stroke-width="1.51"/><path d="M324,226L439,282L487,90Z" fill="#bcd6eb" stroke="#bcd6eb" stroke-width="1.51"/><path d="M296,829L255,982L386,1038Z" fill="#82a6d3" stroke="#82a6d3" stroke-width="1.51"/><path d="M394,640L296,829L465,815Z" fill="#88b4da" stroke="#88b4da" stroke-width="1.51"/><path d="M435,1159L292,1300L462,1236Z" fill="#728bbb" stroke="#728bbb" stroke-width="1.51"/><path d="M265,651L296,829L394,640Z" fill="#8fb9dd" stroke="#8fb9dd" stroke-width="1.51"/><path d="M303,420L335,537L430,407Z" fill="#a5cae5" stroke="#a5cae5" stroke-width="1.51"/><path d="M332,-200L248,-107L431,-22Z" fill="#d5e4f4" stroke="#d5e4f4" stroke-width="1.51"/><path d="M386,1038L293,1135L435,1159Z" fill="#7996c8" stroke="#7996c8" stroke-width="1.51"/><path d="M293,1135L292,1300L435,1159Z" fill="#7790c1" stroke="#7790c1" stroke-width="1.51"/><path d="M303,420L430,407L439,282Z" fill="#accfe6" stroke="#accfe6" stroke-width="1.51"/><path d="M324,226L303,420L439,282Z" fill="#b5d3e9" stroke="#b5d3e9" stroke-width="1.51"/><path d="M248,-107L240,133L431,-22Z" fill="#d0e1f2" stroke="#d0e1f2" stroke-width="1.51"/><path d="M265,651L394,640L396,592Z" fill="#95bedf" stroke="#95bedf" stroke-width="1.51"/><path d="M335,537L265,651L396,592Z" fill="#98c1e1" stroke="#98c1e1" stroke-width="1.51"/><path d="M174,-199L332,-200L380,-263Z" fill="#ddeaf7" stroke="#ddeaf7" stroke-width="1.51"/><path d="M255,982L293,1135L386,1038Z" fill="#7e9dcd" stroke="#7e9dcd" stroke-width="1.51"/><path d="M164,212L131,401L303,420Z" fill="#b8d6e9" stroke="#b8d6e9" stroke-width="1.51"/><path d="M164,212L303,420L324,226Z" fill="#bbd7eb" stroke="#bbd7eb" stroke-width="1.51"/><path d="M303,420L151,584L335,537Z" fill="#a2c9e4" stroke="#a2c9e4" stroke-width="1.51"/><path d="M151,584L265,651L335,537Z" fill="#9cc4e2" stroke="#9cc4e2" stroke-width="1.51"/><path d="M174,-199L248,-107L332,-200Z" fill="#dce9f6" stroke="#dce9f6" stroke-width="1.51"/><path d="M82,73L240,133L248,-107Z" fill="#d3e3f4" stroke="#d3e3f4" stroke-width="1.51"/><path d="M150,1114L101,1273L292,1300Z" fill="#7c90bf" stroke="#7c90bf" stroke-width="1.51"/><path d="M150,1114L292,1300L293,1135Z" fill="#7b93c4" stroke="#7b93c4" stroke-width="1.51"/><path d="M240,133L164,212L324,226Z" fill="#c5dbee" stroke="#c5dbee" stroke-width="1.51"/><path d="M122,-108L82,73L248,-107Z" fill="#d9e7f6" stroke="#d9e7f6" stroke-width="1.51"/><path d="M255,982L150,1114L293,1135Z" fill="#809ccc" stroke="#809ccc" stroke-width="1.51"/><path d="M95,873L255,982L296,829Z" fill="#89add7" stroke="#89add7" stroke-width="1.51"/><path d="M265,651L135,641L296,829Z" fill="#93bcde" stroke="#93bcde" stroke-width="1.51"/><path d="M135,641L95,873L296,829Z" fill="#90b7dc" stroke="#90b7dc" stroke-width="1.51"/><path d="M131,401L151,584L303,420Z" fill="#aacee7" stroke="#aacee7" stroke-width="1.51"/><path d="M113,1011L150,1114L255,982Z" fill="#84a2d0" stroke="#84a2d0" stroke-width="1.51"/><path d="M95,873L113,1011L255,982Z" fill="#88a9d5" stroke="#88a9d5" stroke-width="1.51"/><path d="M151,584L135,641L265,651Z" fill="#9bc2e2" stroke="#9bc2e2" stroke-width="1.51"/><path d="M174,-199L122,-108L248,-107Z" fill="#ddeaf7" stroke="#ddeaf7" stroke-width="1.51"/><path d="M82,73L164,212L240,133Z" fill="#cde0f1" stroke="#cde0f1" stroke-width="1.51"/><path d="M-28,694L95,873L135,641Z" fill="#97bedf" stroke="#97bedf" stroke-width="1.51"/><path d="M131,401L14,485L151,584Z" fill="#accfe8" stroke="#accfe8" stroke-width="1.51"/><path d="M-15,274L131,401L164,212Z" fill="#c1dbed" stroke="#c1dbed" stroke-width="1.51"/><path d="M-57,-213L122,-108L174,-199Z" fill="#e3eef8" stroke="#e3eef8" stroke-width="1.51"/><path d="M-2,1112L101,1273L150,1114Z" fill="#8399c8" stroke="#8399c8" stroke-width="1.51"/><path d="M82,73L-3,85L164,212Z" fill="#d1e2f3" stroke="#d1e2f3" stroke-width="1.51"/><path d="M-3,85L-15,274L164,212Z" fill="#cde1f1" stroke="#cde1f1" stroke-width="1.51"/><path d="M-62,-57L82,73L122,-108Z" fill="#dce9f6" stroke="#dce9f6" stroke-width="1.51"/><path d="M-15,274L-33,344L131,401Z" fill="#c0dbec" stroke="#c0dbec" stroke-width="1.51"/><path d="M113,1011L-2,1112L150,1114Z" fill="#87a0ce" stroke="#87a0ce" stroke-width="1.51"/><path d="M14,485L135,641L151,584Z" fill="#a4c9e5" stroke="#a4c9e5" stroke-width="1.51"/><path d="M-28,694L-60,847L95,873Z" fill="#97badd" stroke="#97badd" stroke-width="1.51"/><path d="M14,485L-28,694L135,641Z" fill="#a3c8e5" stroke="#a3c8e5" stroke-width="1.51"/><path d="M95,873L-57,991L113,1011Z" fill="#8dacd6" stroke="#8dacd6" stroke-width="1.51"/><path d="M-33,344L14,485L131,401Z" fill="#b7d6ea" stroke="#b7d6ea" stroke-width="1.51"/><path d="M-62,-57L-3,85L82,73Z" fill="#dae8f6" stroke="#dae8f6" stroke-width="1.51"/><path d="M-57,-213L-62,-57L122,-108Z" fill="#e4eef9" stroke="#e4eef9" stroke-width="1.51"/><path d="M-57,991L-2,1112L113,1011Z" fill="#8ba5d2" stroke="#8ba5d2" stroke-width="1.51"/><path d="M-60,847L-57,991L95,873Z" fill="#92b2d9" stroke="#92b2d9" stroke-width="1.51"/><path d="M-2,1112L-71,1317L101,1273Z" fill="#8394c0" stroke="#8394c0" stroke-width="1.51"/><path d="M-138,485L-198,633L-28,694Z" fill="#aacce7" stroke="#aacce7" stroke-width="1.51"/><path d="M-172,214L-15,274L-3,85Z" fill="#d1e4f3" stroke="#d1e4f3" stroke-width="1.51"/><path d="M-149,1298L-71,1317L-2,1112Z" fill="#8695c1" stroke="#8695c1" stroke-width="1.51"/><path d="M-211,1161L-149,1298L-2,1112Z" fill="#8b9cc8" stroke="#8b9cc8" stroke-width="1.51"/><path d="M-138,485L-28,694L14,485Z" fill="#abcee8" stroke="#abcee8" stroke-width="1.51"/><path d="M-33,344L-138,485L14,485Z" fill="#b7d6ea" stroke="#b7d6ea" stroke-width="1.51"/><path d="M-170,422L-138,485L-33,344Z" fill="#bcd9ec" stroke="#bcd9ec" stroke-width="1.51"/><path d="M-62,-57L-200,129L-3,85Z" fill="#ddeaf7" stroke="#ddeaf7" stroke-width="1.51"/><path d="M-200,129L-172,214L-3,85Z" fill="#d8e7f5" stroke="#d8e7f5" stroke-width="1.51"/><path d="M-57,991L-169,996L-2,1112Z" fill="#8fa8d3" stroke="#8fa8d3" stroke-width="1.51"/><path d="M-169,996L-211,1161L-2,1112Z" fill="#90a5d0" stroke="#90a5d0" stroke-width="1.51"/><path d="M-60,847L-155,895L-57,991Z" fill="#95b3da" stroke="#95b3da" stroke-width="1.51"/><path d="M-172,214L-33,344L-15,274Z" fill="#c9e0f0" stroke="#c9e0f0" stroke-width="1.51"/><path d="M-202,-86L-62,-57L-57,-213Z" fill="#e8f1fa" stroke="#e8f1fa" stroke-width="1.51"/><path d="M-198,633L-60,847L-28,694Z" fill="#a0c3e2" stroke="#a0c3e2" stroke-width="1.51"/><path d="M-202,-86L-200,129L-62,-57Z" fill="#e3edf9" stroke="#e3edf9" stroke-width="1.51"/><path d="M-198,633L-155,895L-60,847Z" fill="#9dbfdf" stroke="#9dbfdf" stroke-width="1.51"/><path d="M-172,214L-170,422L-33,344Z" fill="#c7e0ee" stroke="#c7e0ee" stroke-width="1.51"/><path d="M-155,895L-169,996L-57,991Z" fill="#95b0d8" stroke="#95b0d8" stroke-width="1.51"/><path d="M-161,-258L-202,-86L-57,-213Z" fill="#edf4fc" stroke="#edf4fc" stroke-width="1.51"/><path d="M-170,422L-198,633L-138,485Z" fill="#b4d4ea" stroke="#b4d4ea" stroke-width="1.51"/><path d="M-198,633L-169,996L-155,895Z" fill="#9dbbde" stroke="#9dbbde" stroke-width="1.51"/><path d="M-172,214L-200,129L-170,422Z" fill="#d0e4f1" stroke="#d0e4f1" stroke-width="1.51"/><path d="M-198,633L-211,1161L-169,996Z" fill="#99b4db" stroke="#99b4db" stroke-width="1.51"/><path d="M-200,129L-198,633L-170,422Z" fill="#c3ddee" stroke="#c3ddee" stroke-width="1.51"/><path d="M-200,129L-211,1161L-198,633Z" fill="#abcce6" stroke="#abcce6" stroke-width="1.51"/></svg>